<svg width="601" height="800" viewBox="0 0 601 800" fill="none" xmlns="http://www.w3.org/2000/svg">
<rect width="600" height="800" transform="translate(0.833496)" fill="url(#paint0_linear_26_8)"/>
<g filter="url(#filter0_d_26_8)">
<path d="M123.174 443.908C114.811 443.908 107.301 442.372 100.645 439.3C94.0748 436.143 88.8695 431.492 85.0295 425.348C81.2748 419.119 79.3975 411.481 79.3975 402.436C79.3975 395.183 80.5068 388.441 82.7255 382.212C84.9442 375.983 88.1868 370.521 92.4535 365.828C96.8055 361.135 102.139 357.465 108.453 354.82C114.853 352.175 122.192 350.852 130.469 350.852C136.613 350.852 142.416 351.791 147.878 353.668C153.339 355.46 157.648 357.807 160.806 360.708L151.974 379.14C145.062 373.935 137.723 371.332 129.958 371.332C124.24 371.332 119.461 372.697 115.621 375.428C111.867 378.073 109.008 381.7 107.045 386.308C105.168 390.831 104.229 395.908 104.229 401.54C104.229 409.049 105.979 414.596 109.477 418.18C112.976 421.679 118.48 423.428 125.989 423.428C129.317 423.428 132.773 422.873 136.357 421.764C139.941 420.655 143.696 418.82 147.621 416.26L153.509 434.82C151.12 436.697 148.219 438.319 144.805 439.684C141.392 441.049 137.808 442.073 134.053 442.756C130.299 443.524 126.672 443.908 123.174 443.908ZM157.032 442.5L171.368 352.26H194.153L188.521 387.46C193.129 381.231 199.827 378.116 208.617 378.116C215.358 378.116 220.563 380.292 224.233 384.644C227.902 388.911 229.011 395.78 227.561 405.252L221.673 442.5H198.889L204.649 405.636C205.161 402.308 204.905 399.791 203.881 398.084C202.942 396.377 201.022 395.524 198.121 395.524C194.622 395.524 191.721 396.719 189.417 399.108C187.198 401.412 185.747 404.697 185.065 408.964L179.817 442.5H157.032ZM241.954 368.644L245.282 348.036H269.218L265.89 368.644H241.954ZM230.818 442.5L240.802 379.524H263.586L253.602 442.5H230.818ZM290.625 443.908C285.079 443.908 279.745 443.311 274.625 442.116C269.591 440.921 265.324 439.087 261.825 436.612L268.097 422.148C271.255 424.111 274.839 425.689 278.849 426.884C282.945 427.993 286.828 428.548 290.497 428.548C293.825 428.548 296.257 428.036 297.793 427.012C299.329 425.988 300.097 424.708 300.097 423.172C300.097 422.063 299.671 421.209 298.817 420.612C298.049 419.929 296.727 419.417 294.849 419.076L283.457 417.156C278.167 416.388 274.071 414.553 271.169 411.652C268.353 408.665 266.945 404.953 266.945 400.516C266.945 396.591 268.097 392.921 270.401 389.508C272.791 386.095 276.289 383.364 280.897 381.316C285.591 379.183 291.436 378.116 298.433 378.116C302.273 378.116 306.369 378.671 310.721 379.78C315.073 380.804 318.956 382.425 322.369 384.644L316.225 398.852C313.324 396.975 310.167 395.609 306.753 394.756C303.425 393.817 300.225 393.348 297.153 393.348C293.655 393.348 291.095 393.903 289.473 395.012C287.852 396.121 287.041 397.487 287.041 399.108C287.041 400.047 287.34 400.857 287.937 401.54C288.62 402.223 289.729 402.692 291.265 402.948L302.657 404.74C308.545 405.764 312.94 407.727 315.841 410.628C318.743 413.529 320.193 417.156 320.193 421.508C320.193 428.847 317.463 434.436 312.001 438.276C306.625 442.031 299.5 443.908 290.625 443.908ZM348.109 443.908C339.747 443.908 333.731 441.647 330.061 437.124C326.477 432.601 325.325 426.031 326.605 417.412L336.973 352.26H359.757L349.389 417.028C348.536 422.831 350.84 425.732 356.301 425.732C357.155 425.732 358.008 425.689 358.861 425.604C359.8 425.519 360.696 425.433 361.549 425.348L358.605 442.628C355.533 443.481 352.035 443.908 348.109 443.908ZM374.433 368.644L377.761 348.036H401.697L398.369 368.644H374.433ZM363.297 442.5L373.281 379.524H396.065L386.081 442.5H363.297ZM417.985 443.908C413.463 443.908 409.623 442.969 406.465 441.092C403.308 439.215 401.047 436.271 399.681 432.26C398.316 428.249 398.145 423.087 399.169 416.772L405.057 379.524H427.841L422.081 416.388C420.972 423.129 423.063 426.5 428.353 426.5C431.681 426.5 434.455 425.305 436.673 422.916C438.892 420.527 440.343 417.199 441.025 412.932L446.273 379.524H469.057L459.073 442.5H436.801L438.209 433.54C435.991 436.953 433.132 439.556 429.633 441.348C426.135 443.055 422.252 443.908 417.985 443.908ZM496.14 443.908C490.594 443.908 485.26 443.311 480.14 442.116C475.106 440.921 470.839 439.087 467.34 436.612L473.612 422.148C476.77 424.111 480.354 425.689 484.364 426.884C488.46 427.993 492.343 428.548 496.012 428.548C499.34 428.548 501.772 428.036 503.308 427.012C504.844 425.988 505.612 424.708 505.612 423.172C505.612 422.063 505.186 421.209 504.332 420.612C503.564 419.929 502.242 419.417 500.364 419.076L488.972 417.156C483.682 416.388 479.586 414.553 476.684 411.652C473.868 408.665 472.46 404.953 472.46 400.516C472.46 396.591 473.612 392.921 475.916 389.508C478.306 386.095 481.804 383.364 486.412 381.316C491.106 379.183 496.951 378.116 503.948 378.116C507.788 378.116 511.884 378.671 516.236 379.78C520.588 380.804 524.471 382.425 527.884 384.644L521.74 398.852C518.839 396.975 515.682 395.609 512.268 394.756C508.94 393.817 505.74 393.348 502.668 393.348C499.17 393.348 496.61 393.903 494.988 395.012C493.367 396.121 492.556 397.487 492.556 399.108C492.556 400.047 492.855 400.857 493.452 401.54C494.135 402.223 495.244 402.692 496.78 402.948L508.172 404.74C514.06 405.764 518.455 407.727 521.356 410.628C524.258 413.529 525.708 417.156 525.708 421.508C525.708 428.847 522.978 434.436 517.516 438.276C512.14 442.031 505.015 443.908 496.14 443.908Z" fill="white"/>
</g>
<defs>
<filter id="filter0_d_26_8" x="71.6975" y="344.336" width="463.887" height="111.272" filterUnits="userSpaceOnUse" color-interpolation-filters="sRGB">
<feFlood flood-opacity="0" result="BackgroundImageFix"/>
<feColorMatrix in="SourceAlpha" type="matrix" values="0 0 0 0 0 0 0 0 0 0 0 0 0 0 0 0 0 0 127 0" result="hardAlpha"/>
<feOffset dy="4"/>
<feGaussianBlur stdDeviation="3.85"/>
<feComposite in2="hardAlpha" operator="out"/>
<feColorMatrix type="matrix" values="0 0 0 0 0 0 0 0 0 0 0 0 0 0 0 0 0 0 0.25 0"/>
<feBlend mode="normal" in2="BackgroundImageFix" result="effect1_dropShadow_26_8"/>
<feBlend mode="normal" in="SourceGraphic" in2="effect1_dropShadow_26_8" result="shape"/>
</filter>
<linearGradient id="paint0_linear_26_8" x1="-39.4588" y1="-51.6161" x2="698.406" y2="800" gradientUnits="userSpaceOnUse">
<stop stop-color="#F7C933"/>
<stop offset="0.5" stop-color="#D7433B"/>
<stop offset="0.942308" stop-color="#1424B1"/>
</linearGradient>
</defs>
</svg>
