<svg width="600" height="800" viewBox="0 0 600 800" fill="none" xmlns="http://www.w3.org/2000/svg">
<rect width="600" height="800" fill="url(#paint0_linear_26_2)"/>
<g filter="url(#filter0_d_26_2)">
<path d="M122.34 443.908C113.977 443.908 106.468 442.372 99.812 439.3C93.2413 436.143 88.036 431.492 84.196 425.348C80.4413 419.119 78.564 411.481 78.564 402.436C78.564 395.183 79.6733 388.441 81.892 382.212C84.1107 375.983 87.3533 370.521 91.62 365.828C95.972 361.135 101.305 357.465 107.62 354.82C114.02 352.175 121.359 350.852 129.636 350.852C135.78 350.852 141.583 351.791 147.044 353.668C152.505 355.46 156.815 357.807 159.972 360.708L151.14 379.14C144.228 373.935 136.889 371.332 129.124 371.332C123.407 371.332 118.628 372.697 114.788 375.428C111.033 378.073 108.175 381.7 106.212 386.308C104.335 390.831 103.396 395.908 103.396 401.54C103.396 409.049 105.145 414.596 108.644 418.18C112.143 421.679 117.647 423.428 125.156 423.428C128.484 423.428 131.94 422.873 135.524 421.764C139.108 420.655 142.863 418.82 146.788 416.26L152.676 434.82C150.287 436.697 147.385 438.319 143.972 439.684C140.559 441.049 136.975 442.073 133.22 442.756C129.465 443.524 125.839 443.908 122.34 443.908ZM156.199 442.5L170.535 352.26H193.319L187.687 387.46C192.295 381.231 198.994 378.116 207.783 378.116C214.524 378.116 219.73 380.292 223.399 384.644C227.068 388.911 228.178 395.78 226.727 405.252L220.839 442.5H198.055L203.815 405.636C204.327 402.308 204.071 399.791 203.047 398.084C202.108 396.377 200.188 395.524 197.287 395.524C193.788 395.524 190.887 396.719 188.583 399.108C186.364 401.412 184.914 404.697 184.231 408.964L178.983 442.5H156.199ZM241.12 368.644L244.448 348.036H268.384L265.056 368.644H241.12ZM229.984 442.5L239.968 379.524H262.752L252.768 442.5H229.984ZM289.792 443.908C284.245 443.908 278.912 443.311 273.792 442.116C268.757 440.921 264.491 439.087 260.992 436.612L267.264 422.148C270.421 424.111 274.005 425.689 278.016 426.884C282.112 427.993 285.995 428.548 289.664 428.548C292.992 428.548 295.424 428.036 296.96 427.012C298.496 425.988 299.264 424.708 299.264 423.172C299.264 422.063 298.837 421.209 297.984 420.612C297.216 419.929 295.893 419.417 294.016 419.076L282.624 417.156C277.333 416.388 273.237 414.553 270.336 411.652C267.52 408.665 266.112 404.953 266.112 400.516C266.112 396.591 267.264 392.921 269.568 389.508C271.957 386.095 275.456 383.364 280.064 381.316C284.757 379.183 290.603 378.116 297.6 378.116C301.44 378.116 305.536 378.671 309.888 379.78C314.24 380.804 318.123 382.425 321.536 384.644L315.392 398.852C312.491 396.975 309.333 395.609 305.92 394.756C302.592 393.817 299.392 393.348 296.32 393.348C292.821 393.348 290.261 393.903 288.64 395.012C287.019 396.121 286.208 397.487 286.208 399.108C286.208 400.047 286.507 400.857 287.104 401.54C287.787 402.223 288.896 402.692 290.432 402.948L301.824 404.74C307.712 405.764 312.107 407.727 315.008 410.628C317.909 413.529 319.36 417.156 319.36 421.508C319.36 428.847 316.629 434.436 311.168 438.276C305.792 442.031 298.667 443.908 289.792 443.908ZM347.276 443.908C338.913 443.908 332.897 441.647 329.228 437.124C325.644 432.601 324.492 426.031 325.772 417.412L336.14 352.26H358.924L348.556 417.028C347.703 422.831 350.007 425.732 355.468 425.732C356.321 425.732 357.175 425.689 358.028 425.604C358.967 425.519 359.863 425.433 360.716 425.348L357.772 442.628C354.7 443.481 351.201 443.908 347.276 443.908ZM373.6 368.644L376.928 348.036H400.864L397.536 368.644H373.6ZM362.464 442.5L372.448 379.524H395.232L385.248 442.5H362.464ZM417.152 443.908C412.629 443.908 408.789 442.969 405.632 441.092C402.475 439.215 400.213 436.271 398.848 432.26C397.483 428.249 397.312 423.087 398.336 416.772L404.224 379.524H427.008L421.248 416.388C420.139 423.129 422.229 426.5 427.52 426.5C430.848 426.5 433.621 425.305 435.84 422.916C438.059 420.527 439.509 417.199 440.192 412.932L445.44 379.524H468.224L458.24 442.5H435.968L437.376 433.54C435.157 436.953 432.299 439.556 428.8 441.348C425.301 443.055 421.419 443.908 417.152 443.908ZM495.307 443.908C489.76 443.908 484.427 443.311 479.307 442.116C474.272 440.921 470.006 439.087 466.507 436.612L472.779 422.148C475.936 424.111 479.52 425.689 483.531 426.884C487.627 427.993 491.51 428.548 495.179 428.548C498.507 428.548 500.939 428.036 502.475 427.012C504.011 425.988 504.779 424.708 504.779 423.172C504.779 422.063 504.352 421.209 503.499 420.612C502.731 419.929 501.408 419.417 499.531 419.076L488.139 417.156C482.848 416.388 478.752 414.553 475.851 411.652C473.035 408.665 471.627 404.953 471.627 400.516C471.627 396.591 472.779 392.921 475.083 389.508C477.472 386.095 480.971 383.364 485.579 381.316C490.272 379.183 496.118 378.116 503.115 378.116C506.955 378.116 511.051 378.671 515.403 379.78C519.755 380.804 523.638 382.425 527.051 384.644L520.907 398.852C518.006 396.975 514.848 395.609 511.435 394.756C508.107 393.817 504.907 393.348 501.835 393.348C498.336 393.348 495.776 393.903 494.155 395.012C492.534 396.121 491.723 397.487 491.723 399.108C491.723 400.047 492.022 400.857 492.619 401.54C493.302 402.223 494.411 402.692 495.947 402.948L507.339 404.74C513.227 405.764 517.622 407.727 520.523 410.628C523.424 413.529 524.875 417.156 524.875 421.508C524.875 428.847 522.144 434.436 516.683 438.276C511.307 442.031 504.182 443.908 495.307 443.908Z" fill="white"/>
</g>
<defs>
<filter id="filter0_d_26_2" x="70.864" y="344.336" width="463.887" height="111.272" filterUnits="userSpaceOnUse" color-interpolation-filters="sRGB">
<feFlood flood-opacity="0" result="BackgroundImageFix"/>
<feColorMatrix in="SourceAlpha" type="matrix" values="0 0 0 0 0 0 0 0 0 0 0 0 0 0 0 0 0 0 127 0" result="hardAlpha"/>
<feOffset dy="4"/>
<feGaussianBlur stdDeviation="3.85"/>
<feComposite in2="hardAlpha" operator="out"/>
<feColorMatrix type="matrix" values="0 0 0 0 0 0 0 0 0 0 0 0 0 0 0 0 0 0 0.25 0"/>
<feBlend mode="normal" in2="BackgroundImageFix" result="effect1_dropShadow_26_2"/>
<feBlend mode="normal" in="SourceGraphic" in2="effect1_dropShadow_26_2" result="shape"/>
</filter>
<linearGradient id="paint0_linear_26_2" x1="-39.4588" y1="-51.6161" x2="698.406" y2="800" gradientUnits="userSpaceOnUse">
<stop stop-color="#252525"/>
<stop offset="0.5" stop-color="#686868"/>
<stop offset="0.942308" stop-color="#252525"/>
</linearGradient>
</defs>
</svg>
